<svg width="344" height="86" viewBox="0 0 344 86" fill="none" xmlns="http://www.w3.org/2000/svg">
<rect width="86" height="86" rx="11" fill="#2A2B44"/>
<path d="M46.0114 25.0909H53.3068V49.4318C53.3068 51.6818 52.8011 53.6364 51.7898 55.2955C50.7898 56.9545 49.3977 58.233 47.6136 59.1307C45.8295 60.0284 43.7557 60.4773 41.392 60.4773C39.2898 60.4773 37.3807 60.108 35.6648 59.3693C33.9602 58.6193 32.608 57.483 31.608 55.9602C30.608 54.4261 30.1136 52.5 30.125 50.1818H37.4716C37.4943 51.1023 37.6818 51.892 38.0341 52.5511C38.3977 53.1989 38.892 53.6989 39.517 54.0511C40.1534 54.392 40.9034 54.5625 41.767 54.5625C42.6761 54.5625 43.4432 54.3693 44.0682 53.983C44.7045 53.5852 45.1875 53.0057 45.517 52.2443C45.8466 51.483 46.0114 50.5455 46.0114 49.4318V25.0909Z" fill="white"/>
<path d="M127.176 28.9091H133.256V49.1932C133.256 51.0682 132.834 52.697 131.991 54.0795C131.158 55.4621 129.998 56.5275 128.511 57.2756C127.025 58.0237 125.296 58.3977 123.327 58.3977C121.575 58.3977 119.984 58.09 118.554 57.4744C117.134 56.8494 116.007 55.9025 115.173 54.6335C114.34 53.3551 113.928 51.75 113.938 49.8182H120.06C120.079 50.5852 120.235 51.2434 120.528 51.7926C120.831 52.3324 121.243 52.7491 121.764 53.0426C122.295 53.3267 122.92 53.4688 123.639 53.4688C124.397 53.4688 125.036 53.3078 125.557 52.9858C126.087 52.6544 126.49 52.1714 126.764 51.5369C127.039 50.9025 127.176 50.1212 127.176 49.1932V28.9091ZM154.485 58.4261C152.279 58.4261 150.371 57.9574 148.761 57.0199C147.16 56.0729 145.925 54.7566 145.053 53.071C144.182 51.3759 143.747 49.411 143.747 47.1761C143.747 44.9223 144.182 42.9527 145.053 41.267C145.925 39.572 147.16 38.2557 148.761 37.3182C150.371 36.3712 152.279 35.8977 154.485 35.8977C156.692 35.8977 158.595 36.3712 160.195 37.3182C161.805 38.2557 163.046 39.572 163.917 41.267C164.788 42.9527 165.224 44.9223 165.224 47.1761C165.224 49.411 164.788 51.3759 163.917 53.071C163.046 54.7566 161.805 56.0729 160.195 57.0199C158.595 57.9574 156.692 58.4261 154.485 58.4261ZM154.514 53.7386C155.517 53.7386 156.355 53.4545 157.028 52.8864C157.7 52.3087 158.207 51.5227 158.548 50.5284C158.898 49.5341 159.073 48.4025 159.073 47.1335C159.073 45.8646 158.898 44.733 158.548 43.7386C158.207 42.7443 157.7 41.9583 157.028 41.3807C156.355 40.803 155.517 40.5142 154.514 40.5142C153.5 40.5142 152.648 40.803 151.957 41.3807C151.275 41.9583 150.759 42.7443 150.409 43.7386C150.068 44.733 149.897 45.8646 149.897 47.1335C149.897 48.4025 150.068 49.5341 150.409 50.5284C150.759 51.5227 151.275 52.3087 151.957 52.8864C152.648 53.4545 153.5 53.7386 154.514 53.7386ZM175.672 58V28.9091H181.723V39.8466H181.908C182.173 39.2595 182.557 38.6629 183.059 38.0568C183.57 37.4413 184.233 36.9299 185.047 36.5227C185.871 36.1061 186.894 35.8977 188.115 35.8977C189.706 35.8977 191.174 36.3144 192.519 37.1477C193.863 37.9716 194.938 39.2169 195.743 40.8835C196.548 42.5407 196.951 44.6193 196.951 47.1193C196.951 49.553 196.558 51.608 195.772 53.2841C194.995 54.9508 193.934 56.215 192.59 57.0767C191.255 57.929 189.758 58.3551 188.101 58.3551C186.927 58.3551 185.928 58.161 185.104 57.7727C184.29 57.3845 183.622 56.8968 183.101 56.3097C182.58 55.7131 182.183 55.1117 181.908 54.5057H181.638V58H175.672ZM181.595 47.0909C181.595 48.3883 181.775 49.5199 182.135 50.4858C182.495 51.4517 183.016 52.2045 183.698 52.7443C184.38 53.2746 185.208 53.5398 186.184 53.5398C187.168 53.5398 188.002 53.2699 188.684 52.7301C189.365 52.1809 189.881 51.4233 190.232 50.4574C190.592 49.482 190.772 48.3598 190.772 47.0909C190.772 45.8314 190.596 44.7235 190.246 43.767C189.896 42.8106 189.38 42.0625 188.698 41.5227C188.016 40.983 187.178 40.7131 186.184 40.7131C185.199 40.7131 184.365 40.9735 183.684 41.4943C183.011 42.0152 182.495 42.7538 182.135 43.7102C181.775 44.6667 181.595 45.7936 181.595 47.0909ZM204.792 33.9801V28.9091H228.684V33.9801H219.778V58H213.699V33.9801H204.792ZM236.64 58V36.1818H242.506V39.9886H242.734C243.131 38.6345 243.799 37.6117 244.736 36.9205C245.674 36.2197 246.753 35.8693 247.975 35.8693C248.278 35.8693 248.605 35.8883 248.955 35.9261C249.305 35.964 249.613 36.0161 249.878 36.0824V41.4517C249.594 41.3665 249.201 41.2907 248.699 41.2244C248.198 41.1581 247.738 41.125 247.322 41.125C246.431 41.125 245.636 41.3191 244.935 41.7074C244.244 42.0862 243.695 42.6165 243.287 43.2983C242.89 43.9801 242.691 44.7661 242.691 45.6562V58H236.64ZM265.004 58.4119C263.612 58.4119 262.371 58.1705 261.282 57.6875C260.193 57.1951 259.331 56.4706 258.697 55.5142C258.072 54.5483 257.759 53.3456 257.759 51.9062C257.759 50.6941 257.982 49.6761 258.427 48.8523C258.872 48.0284 259.478 47.3655 260.245 46.8636C261.012 46.3617 261.883 45.983 262.859 45.7273C263.844 45.4716 264.876 45.2917 265.955 45.1875C267.224 45.0549 268.247 44.9318 269.023 44.8182C269.8 44.6951 270.363 44.5152 270.714 44.2784C271.064 44.0417 271.239 43.6913 271.239 43.2273V43.142C271.239 42.2424 270.955 41.5464 270.387 41.054C269.828 40.5616 269.033 40.3153 268.001 40.3153C266.912 40.3153 266.045 40.5568 265.401 41.0398C264.757 41.5133 264.331 42.1098 264.123 42.8295L258.526 42.375C258.81 41.0492 259.369 39.9034 260.202 38.9375C261.036 37.9621 262.111 37.214 263.427 36.6932C264.753 36.1629 266.287 35.8977 268.029 35.8977C269.241 35.8977 270.401 36.0398 271.509 36.3239C272.627 36.608 273.616 37.0483 274.478 37.6449C275.349 38.2415 276.036 39.0085 276.538 39.946C277.04 40.8741 277.29 41.9867 277.29 43.2841V58H271.552V54.9744H271.381C271.031 55.6562 270.562 56.2576 269.975 56.7784C269.388 57.2898 268.683 57.6922 267.859 57.9858C267.035 58.2699 266.083 58.4119 265.004 58.4119ZM266.737 54.2358C267.627 54.2358 268.413 54.0606 269.094 53.7102C269.776 53.3504 270.311 52.8674 270.7 52.2614C271.088 51.6553 271.282 50.9687 271.282 50.2017V47.8864C271.093 48.0095 270.832 48.1231 270.501 48.2273C270.179 48.322 269.814 48.4119 269.407 48.4972C269 48.5729 268.593 48.6439 268.185 48.7102C267.778 48.767 267.409 48.8191 267.077 48.8665C266.367 48.9706 265.747 49.1364 265.217 49.3636C264.686 49.5909 264.274 49.8987 263.981 50.2869C263.687 50.6657 263.54 51.1392 263.54 51.7074C263.54 52.5312 263.839 53.161 264.435 53.5966C265.041 54.0227 265.808 54.2358 266.737 54.2358ZM298.243 58.4261C296.008 58.4261 294.086 57.9527 292.476 57.0057C290.876 56.0492 289.645 54.7235 288.783 53.0284C287.931 51.3333 287.504 49.3826 287.504 47.1761C287.504 44.9413 287.935 42.9811 288.797 41.2955C289.668 39.6004 290.904 38.2794 292.504 37.3324C294.105 36.3759 296.008 35.8977 298.215 35.8977C300.118 35.8977 301.785 36.2434 303.215 36.9347C304.645 37.6259 305.776 38.5966 306.61 39.8466C307.443 41.0966 307.902 42.5644 307.987 44.25H302.277C302.116 43.161 301.69 42.285 300.999 41.6222C300.317 40.9498 299.422 40.6136 298.314 40.6136C297.377 40.6136 296.557 40.8693 295.857 41.3807C295.165 41.8826 294.626 42.6165 294.237 43.5824C293.849 44.5483 293.655 45.7178 293.655 47.0909C293.655 48.483 293.844 49.6667 294.223 50.642C294.611 51.6174 295.156 52.3608 295.857 52.8722C296.557 53.3835 297.377 53.6392 298.314 53.6392C299.005 53.6392 299.626 53.4972 300.175 53.2131C300.734 52.929 301.193 52.517 301.553 51.9773C301.922 51.428 302.163 50.7699 302.277 50.0028H307.987C307.893 51.6695 307.438 53.1373 306.624 54.4062C305.819 55.6657 304.706 56.6506 303.286 57.3608C301.865 58.071 300.184 58.4261 298.243 58.4261ZM323.745 51.7216L323.759 44.4631H324.639L331.628 36.1818H338.574L329.185 47.1477H327.75L323.745 51.7216ZM318.262 58V28.9091H324.313V58H318.262ZM331.898 58L325.478 48.4972L329.512 44.2216L338.986 58H331.898Z" fill="#2A2B44"/>
</svg>
