<svg width="299" height="86" viewBox="0 0 299 86" fill="none" xmlns="http://www.w3.org/2000/svg">
<rect width="86" height="86" rx="11" fill="#2A2B44"/>
<path d="M46.0114 25.0909H53.3068V49.4318C53.3068 51.6818 52.8011 53.6364 51.7898 55.2955C50.7898 56.9545 49.3977 58.233 47.6136 59.1307C45.8295 60.0284 43.7557 60.4773 41.392 60.4773C39.2898 60.4773 37.3807 60.108 35.6648 59.3693C33.9602 58.6193 32.608 57.483 31.608 55.9602C30.608 54.4261 30.1136 52.5 30.125 50.1818H37.4716C37.4943 51.1023 37.6818 51.892 38.0341 52.5511C38.3977 53.1989 38.892 53.6989 39.517 54.0511C40.1534 54.392 40.9034 54.5625 41.767 54.5625C42.6761 54.5625 43.4432 54.3693 44.0682 53.983C44.7045 53.5852 45.1875 53.0057 45.517 52.2443C45.8466 51.483 46.0114 50.5455 46.0114 49.4318V25.0909Z" fill="white"/>
<path d="M127.176 28.9091H133.256V49.1932C133.256 51.0682 132.834 52.697 131.991 54.0795C131.158 55.4621 129.998 56.5275 128.511 57.2756C127.025 58.0237 125.296 58.3977 123.327 58.3977C121.575 58.3977 119.984 58.09 118.554 57.4744C117.134 56.8494 116.007 55.9025 115.173 54.6335C114.34 53.3551 113.928 51.75 113.938 49.8182H120.06C120.079 50.5852 120.235 51.2434 120.528 51.7926C120.831 52.3324 121.243 52.7491 121.764 53.0426C122.295 53.3267 122.92 53.4688 123.639 53.4688C124.397 53.4688 125.036 53.3078 125.557 52.9858C126.087 52.6544 126.49 52.1714 126.764 51.5369C127.039 50.9025 127.176 50.1212 127.176 49.1932V28.9091ZM158.085 58.4261C155.879 58.4261 153.971 57.9574 152.361 57.0199C150.76 56.0729 149.525 54.7566 148.653 53.071C147.782 51.3759 147.347 49.411 147.347 47.1761C147.347 44.9223 147.782 42.9527 148.653 41.267C149.525 39.572 150.76 38.2557 152.361 37.3182C153.971 36.3712 155.879 35.8977 158.085 35.8977C160.292 35.8977 162.195 36.3712 163.795 37.3182C165.405 38.2557 166.646 39.572 167.517 41.267C168.388 42.9527 168.824 44.9223 168.824 47.1761C168.824 49.411 168.388 51.3759 167.517 53.071C166.646 54.7566 165.405 56.0729 163.795 57.0199C162.195 57.9574 160.292 58.4261 158.085 58.4261ZM158.114 53.7386C159.117 53.7386 159.955 53.4545 160.628 52.8864C161.3 52.3087 161.807 51.5227 162.148 50.5284C162.498 49.5341 162.673 48.4025 162.673 47.1335C162.673 45.8646 162.498 44.733 162.148 43.7386C161.807 42.7443 161.3 41.9583 160.628 41.3807C159.955 40.803 159.117 40.5142 158.114 40.5142C157.1 40.5142 156.248 40.803 155.557 41.3807C154.875 41.9583 154.359 42.7443 154.009 43.7386C153.668 44.733 153.497 45.8646 153.497 47.1335C153.497 48.4025 153.668 49.5341 154.009 50.5284C154.359 51.5227 154.875 52.3087 155.557 52.8864C156.248 53.4545 157.1 53.7386 158.114 53.7386ZM182.872 58V28.9091H188.923V39.8466H189.108C189.373 39.2595 189.757 38.6629 190.259 38.0568C190.77 37.4413 191.433 36.9299 192.247 36.5227C193.071 36.1061 194.094 35.8977 195.315 35.8977C196.906 35.8977 198.374 36.3144 199.719 37.1477C201.063 37.9716 202.138 39.2169 202.943 40.8835C203.748 42.5407 204.151 44.6193 204.151 47.1193C204.151 49.553 203.758 51.608 202.972 53.2841C202.195 54.9508 201.134 56.215 199.79 57.0767C198.455 57.929 196.958 58.3551 195.301 58.3551C194.127 58.3551 193.128 58.161 192.304 57.7727C191.49 57.3845 190.822 56.8968 190.301 56.3097C189.78 55.7131 189.383 55.1117 189.108 54.5057H188.838V58H182.872ZM188.795 47.0909C188.795 48.3883 188.975 49.5199 189.335 50.4858C189.695 51.4517 190.216 52.2045 190.898 52.7443C191.58 53.2746 192.408 53.5398 193.384 53.5398C194.368 53.5398 195.202 53.2699 195.884 52.7301C196.565 52.1809 197.081 51.4233 197.432 50.4574C197.792 49.482 197.972 48.3598 197.972 47.0909C197.972 45.8314 197.796 44.7235 197.446 43.767C197.096 42.8106 196.58 42.0625 195.898 41.5227C195.216 40.983 194.378 40.7131 193.384 40.7131C192.399 40.7131 191.565 40.9735 190.884 41.4943C190.211 42.0152 189.695 42.7538 189.335 43.7102C188.975 44.6667 188.795 45.7936 188.795 47.0909ZM218.188 58V36.1818H224.239V58H218.188ZM221.228 33.3693C220.328 33.3693 219.557 33.071 218.913 32.4744C218.278 31.8684 217.961 31.1439 217.961 30.3011C217.961 29.4678 218.278 28.7528 218.913 28.1562C219.557 27.5502 220.328 27.2472 221.228 27.2472C222.128 27.2472 222.895 27.5502 223.529 28.1562C224.173 28.7528 224.495 29.4678 224.495 30.3011C224.495 31.1439 224.173 31.8684 223.529 32.4744C222.895 33.071 222.128 33.3693 221.228 33.3693ZM250.82 36.1818V40.7273H237.354V36.1818H250.82ZM240.436 58V34.6051C240.436 33.0237 240.744 31.7121 241.359 30.6705C241.984 29.6288 242.837 28.8475 243.916 28.3267C244.996 27.8059 246.222 27.5455 247.595 27.5455C248.523 27.5455 249.371 27.6165 250.138 27.7585C250.914 27.9006 251.492 28.0284 251.871 28.142L250.791 32.6875C250.554 32.6117 250.261 32.5407 249.911 32.4744C249.57 32.4081 249.219 32.375 248.859 32.375C247.969 32.375 247.349 32.5833 246.999 33C246.648 33.4072 246.473 33.9801 246.473 34.7188V58H240.436ZM268.252 66.1818C267.485 66.1818 266.765 66.1203 266.093 65.9972C265.43 65.8835 264.881 65.7367 264.445 65.5568L265.809 61.0398C266.519 61.2576 267.158 61.3759 267.727 61.3949C268.304 61.4138 268.801 61.2813 269.218 60.9972C269.644 60.7131 269.99 60.2301 270.255 59.5483L270.61 58.625L262.783 36.1818H269.147L273.664 52.2045H273.891L278.451 36.1818H284.857L276.377 60.358C275.97 61.5322 275.416 62.5549 274.715 63.4261C274.024 64.3068 273.148 64.9839 272.087 65.4574C271.027 65.9403 269.748 66.1818 268.252 66.1818Z" fill="#2A2B44"/>
</svg>
